<svg xmlns="http://www.w3.org/2000/svg" width="179.538" height="178.664" viewBox="0 0 179.538 178.664">
    <defs>
        <style>
            .cls-1,.cls-2{fill:#151a1f}.cls-1{opacity:.2}.cls-2{opacity:.6}.cls-3{fill:#454b52}
        </style>
    </defs>
    <g id="_404_Icon" data-name="404 Icon" transform="rotate(10.02 4381.515 -3198.288)">
        <path id="Oval" d="M77.6 153.8c40.177 3.262 79.1-24.225 77.5-75.974S118.693-8.576 77.6 1.856-2.266 38.819.1 77.83s37.322 72.712 77.5 75.97z" class="cls-1" transform="translate(649.445 709.158)"/>
        <path id="Oval-2" d="M59.337 117.609C90.06 120.1 119.819 99.084 118.6 59.514S90.762-6.558 59.338 1.419-1.733 29.683.079 59.514s28.536 55.6 59.258 58.095z" class="cls-2" data-name="Oval" transform="rotate(-71 903.48 -42.422)"/>
        <g id="noun_breakdance_2752585" transform="translate(677 741.382)">
            <path id="Path_388" d="M77.745 5H65.524a1.886 1.886 0 0 0-1.88 1.88v24.442l-7.051 6.392-2.35-9.777v-.094c0-.094 0-.094-.094-.188 0-.094 0-.094-.094-.188 0-.094-.094-.094-.094-.188s-.094-.094-.094-.188a.092.092 0 0 0-.094-.091l-.094-.094-.094-.094c-.094 0-.094-.094-.188-.094L42.3 20.7l-9.4-5.076.47-.846a6.609 6.609 0 0 0-2.632-8.931 6.139 6.139 0 0 0-4.982-.47 6.368 6.368 0 0 0-3.948 3.2l-5.826 10.712a1.851 1.851 0 0 0 .752 2.538L42.68 35.834l2.162 9.119V70.8a9.4 9.4 0 1 0 11.281 9.213 9.667 9.667 0 0 0-1.88-5.64h7.521v8.461a6.58 6.58 0 0 0 13.161 0v-19.55a1.886 1.886 0 0 0-1.88-1.88H58V54.26l8.743-7.991 9.4-8.555c.094 0 .094-.094.094-.188l.094-.094c0-.094.094-.094.094-.188s.094-.094.094-.188 0-.094.094-.188c0-.094 0-.094.094-.188V18.161h.94a6.54 6.54 0 0 0 6.58-6.58A6.461 6.461 0 0 0 77.745 5zM52.363 80.206a5.64 5.64 0 1 1-5.64-5.64 5.657 5.657 0 0 1 5.64 5.64zm18.8 2.82a2.82 2.82 0 0 1-5.64 0V72.685a1.886 1.886 0 0 0-1.88-1.88H48.6V44.483L46.159 34.33v-.094c0-.094 0-.094-.094-.188 0-.094 0-.094-.094-.188 0-.094-.094-.094-.094-.188s-.094-.094-.094-.188l-.094-.094a.092.092 0 0 0-.094-.094L45.5 33.2c-.094 0-.094-.094-.188-.094l-25.1-13.537 4.888-9.117a2.84 2.84 0 0 1 4.982 2.726l-1.316 2.444a1.851 1.851 0 0 0 .752 2.538l11 5.922 10.341 5.548 2.726 11.47.094.564.564 2.256v19.364a1.886 1.886 0 0 0 1.88 1.88h15.041zM77.745 14.4h-2.82a1.886 1.886 0 0 0-1.88 1.88v19.178L64.3 43.449 58 49.183v-5.734l-.376-1.41L58.756 41l7.991-7.333c.094 0 .094-.094.094-.188l.094-.094c0-.094.094-.094.094-.188s.094-.094.094-.188 0-.094.094-.188c0-.094 0-.094.094-.188V8.76h10.34a2.77 2.77 0 0 1 2.82 2.82 2.693 2.693 0 0 1-2.726 2.82zm-48.6 27.356l-7.521 2.82a1.838 1.838 0 0 0-1.224 1.787v12.879a6.909 6.909 0 0 0-2.82-.658 6.58 6.58 0 1 0 6.58 6.58V47.679l6.3-2.35a1.918 1.918 0 0 0 1.128-2.444 1.956 1.956 0 0 0-2.445-1.128zM17.58 67.985a2.82 2.82 0 1 1 2.82-2.82 2.77 2.77 0 0 1-2.82 2.82z" class="cls-3" data-name="Path 388"/>
        </g>
    </g>
</svg>
