<svg xmlns="http://www.w3.org/2000/svg" width="209.682" height="446.541" viewBox="0 0 209.682 446.541">
    <defs>
        <style>
            .cls-1,.cls-2{fill:none}.cls-1{clip-rule:evenodd}.cls-3{clip-path:url(#clip-path)}.cls-4{fill:#97999b}.cls-5{clip-path:url(#clip-path-2)}.cls-6{fill:#535454}.cls-7{clip-path:url(#clip-path-3)}.cls-8{clip-path:url(#clip-path-4)}.cls-9{clip-path:url(#clip-path-5)}.cls-10{clip-path:url(#clip-path-6)}.cls-11{fill:#fcfcfb}.cls-12{clip-path:url(#clip-path-7)}.cls-13{clip-path:url(#clip-path-8)}.cls-14{clip-path:url(#clip-path-9)}.cls-15{clip-path:url(#clip-path-10)}
        </style>
        <clipPath id="clip-path">
            <path id="Path_403" d="M230.65-1855.606a21.418 21.418 0 0 1-21.439 21.348H47.636a21.418 21.418 0 0 1-21.436-21.348v-398.3a21.417 21.417 0 0 1 21.438-21.348h161.573a21.418 21.418 0 0 1 21.439 21.348zm-21.439-421.216H47.636a22.476 22.476 0 0 0-22.485 22.415v398.775a22.475 22.475 0 0 0 22.485 22.413h161.575a22.475 22.475 0 0 0 22.485-22.413v-398.775a22.476 22.476 0 0 0-22.485-22.415z" class="cls-1" data-name="Path 403" transform="translate(-25.151 2276.822)"/>
        </clipPath>
        <clipPath id="clip-path-2">
            <path id="Path_413" d="M452.92-2260.321a.507.507 0 0 1-.523.49h-71.7a.508.508 0 0 1-.523-.49.508.508 0 0 1 .523-.489h71.7a.507.507 0 0 1 .523.489" class="cls-1" data-name="Path 413" transform="translate(-380.17 2260.81)"/>
        </clipPath>
        <clipPath id="clip-path-3">
            <path id="Path_425" d="M1153.988-1688.078h.536v19.636h-.536z" class="cls-1" data-name="Path 425" transform="translate(-1153.988 1688.078)"/>
        </clipPath>
        <clipPath id="clip-path-4">
            <path id="Rectangle_290" d="M0 0h.55v19.816H0z" class="cls-2" data-name="Rectangle 290"/>
        </clipPath>
        <clipPath id="clip-path-5">
            <path id="Path_424" d="M1154.1-1668.442h.516v-19.636h-.516z" class="cls-1" data-name="Path 424" transform="translate(-1154.102 1688.078)"/>
        </clipPath>
        <clipPath id="clip-path-6">
            <path id="Path_423" d="M1153-1669.184h.734V-1689H1153z" class="cls-2" data-name="Path 423" transform="translate(-1153 1689)"/>
        </clipPath>
        <clipPath id="clip-path-7">
            <path id="Path_429" d="M1153.988-1442.671h.536v28.251h-.536z" class="cls-1" data-name="Path 429" transform="translate(-1153.988 1442.671)"/>
        </clipPath>
        <clipPath id="clip-path-8">
            <path id="Rectangle_291" d="M0 0h.55v28.44H0z" class="cls-2" data-name="Rectangle 291"/>
        </clipPath>
        <clipPath id="clip-path-9">
            <path id="Path_428" d="M1154.1-1414.42h.516v-28.251h-.516z" class="cls-1" data-name="Path 428" transform="translate(-1154.102 1442.671)"/>
        </clipPath>
        <clipPath id="clip-path-10">
            <path id="Path_427" d="M1153-1414.56h.734V-1443H1153z" class="cls-2" data-name="Path 427" transform="translate(-1153 1443)"/>
        </clipPath>
    </defs>
    <g id="Mobile_Frame" data-name="Mobile Frame" transform="translate(-345.032 -208)">
        <path id="Subtraction_7" d="M185.628 446.541H24.053A24.069 24.069 0 0 1 1.89 431.9 23.746 23.746 0 0 1 0 422.573V23.969A23.851 23.851 0 0 1 7.045 7.02 24.02 24.02 0 0 1 24.053 0h161.575a23.969 23.969 0 0 1 24.054 23.969v398.6a24.015 24.015 0 0 1-24.054 23.968zM6.969 37.282V408.44h196V37.282z" data-name="Subtraction 7" transform="translate(345.032 208)"/>
        <g id="Group_768" class="cls-3" data-name="Group 768" transform="translate(346.6 209.468)">
            <path id="Path_402" d="M20.151-2281.822h208.38v445.559H20.151z" class="cls-4" data-name="Path 402" transform="translate(-21.068 2280.844)"/>
        </g>
        <g id="Group_776" class="cls-5" data-name="Group 776" transform="translate(411.74 212.406)">
            <path id="Path_412" d="M375.17-2265.81h74.585v2.81H375.17z" class="cls-6" data-name="Path 412" transform="translate(-376.087 2264.893)"/>
        </g>
        <g id="Group_784" class="cls-7" data-name="Group 784" transform="translate(553.723 324.981)">
            <g id="Group_783" class="cls-8" data-name="Group 783" transform="translate(.002 -.169)">
                <g id="Group_782" class="cls-9" data-name="Group 782" transform="translate(.019 .169)">
                    <g id="Group_781" class="cls-10" data-name="Group 781" transform="translate(-.202 -.169)">
                        <path id="Path_422" d="M1149.1-1693.078h2.351v21.471h-2.351z" class="cls-11" data-name="Path 422" transform="translate(-1149.817 1692.33)"/>
                    </g>
                </g>
            </g>
        </g>
        <g id="Group_788" class="cls-12" data-name="Group 788" transform="translate(553.723 373.321)">
            <g id="Group_787" class="cls-13" data-name="Group 787" transform="translate(.002 -.06)">
                <g id="Group_786" class="cls-14" data-name="Group 786" transform="translate(.019 .06)">
                    <g id="Group_785" class="cls-15" data-name="Group 785" transform="translate(-.202 -.06)">
                        <path id="Path_426" d="M1149.1-1447.671h2.351v30.086h-2.351z" class="cls-11" data-name="Path 426" transform="translate(-1149.817 1446.814)"/>
                    </g>
                </g>
            </g>
        </g>
    </g>
</svg>
