<svg xmlns="http://www.w3.org/2000/svg" width="155.143" height="154.842" viewBox="0 0 155.143 154.842">
    <defs>
        <style>
            .cls-1,.cls-2{fill:#e8e8e8}.cls-1{opacity:.2}.cls-2{opacity:.6}.cls-3{fill:#93979a}
        </style>
    </defs>
    <g id="My_Music_empty_stsate_" data-name="My Music (empty stsate)" transform="translate(-649.445 -709.158)">
        <path id="Oval" d="M77.6 153.8c40.177 3.262 79.1-24.225 77.5-75.974S118.693-8.576 77.6 1.856-2.266 38.819.1 77.83s37.322 72.712 77.5 75.97z" class="cls-1" transform="translate(649.445 709.158)"/>
        <path id="Oval-2" d="M59.337 117.609C90.06 120.1 119.819 99.084 118.6 59.514S90.762-6.558 59.338 1.419-1.733 29.683.079 59.514s28.536 55.6 59.258 58.095z" class="cls-2" data-name="Oval" transform="rotate(-71 903.48 -42.422)"/>
        <g id="Group_688" data-name="Group 688" transform="translate(659.42 736.909)">
            <path id="Path_362" d="M147.276 52.569a40.714 40.714 0 0 0-34.633-28.655 41.374 41.374 0 0 0-4.284-.227 40.608 40.608 0 0 0-9.975 1.253 2.819 2.819 0 0 0-.364-.245 2.309 2.309 0 0 0-1.754-.17l-31.2 9.454H28.919a2.3 2.3 0 0 0-2.3 2.295v9.352l-5.641 1.709A2.3 2.3 0 0 0 19.45 50.2l7.171 23.67v41.07a2.3 2.3 0 0 0 2.3 2.3h10.84l2.5 8.25a2.3 2.3 0 0 0 1.116 1.357 2.267 2.267 0 0 0 1.083.272 2.366 2.366 0 0 0 .67-.1l32.28-9.785h30.171a2.3 2.3 0 0 0 2.3-2.3V107.4l10.529-3.192a2.284 2.284 0 0 0 1.529-1.523 40.649 40.649 0 0 0 25.338-50.11zm-116.062-14h18.7l-18.7 5.667zm0 74.072V89.032l7.155 23.613h-7.155zm74.072 0h-12.72l12.72-3.856zM46 121.956l-21.49-70.89L95.4 29.587l21.479 70.892zm61.436-68.5a10.959 10.959 0 0 1 11.392 7.731 10.939 10.939 0 0 1-5.185 12.757zm36.8 14.7a36.028 36.028 0 0 1-23.257 29.995l-5.982-19.742a15.537 15.537 0 0 0-8.911-29.417L100.1 29.248a35.764 35.764 0 0 1 8.257-.969 36.366 36.366 0 0 1 3.8.2 36.11 36.11 0 0 1 32.078 39.678z" class="cls-3" data-name="Path 362" transform="translate(-19.352 -23.687)"/>
            <path id="Rectangle_258" d="M0 0h29.372v5.874H0z" class="cls-3" data-name="Rectangle 258" transform="rotate(-17 155.46 -39.707)"/>
            <path id="Rectangle_259" d="M0 0h46.995v5.874H0z" class="cls-3" data-name="Rectangle 259" transform="rotate(-17 120.752 -31.5)"/>
        </g>
    </g>
</svg>
