<svg xmlns="http://www.w3.org/2000/svg" width="155.142" height="154.84" viewBox="0 0 155.142 154.84">
    <defs>
        <style>
            .cls-1,.cls-2{fill:#e8e8e8}.cls-1{opacity:.2}.cls-2{opacity:.6}.cls-3{fill:#93979a}
        </style>
    </defs>
    <g id="No_RPL_Empty_state_" data-name="No RPL (Empty state)" transform="translate(-649.446 -729.158)">
        <g id="Group_689" data-name="Group 689" transform="translate(0 20)">
            <path id="Oval" d="M77.6 153.8c40.177 3.262 79.1-24.225 77.5-75.974S118.693-8.576 77.6 1.856-2.266 38.819.1 77.83s37.322 72.712 77.5 75.97z" class="cls-1" transform="translate(649.445 709.158)"/>
            <path id="Oval-2" d="M59.337 117.609C90.06 120.1 119.819 99.084 118.6 59.514S90.762-6.558 59.338 1.419-1.733 29.683.079 59.514s28.536 55.6 59.258 58.095z" class="cls-2" data-name="Oval" transform="rotate(-71 903.48 -42.422)"/>
        </g>
        <g id="noun_turntable_446801" transform="translate(651.068 743.422)">
            <path id="Path_364" d="M120.687 106.8H15.213a1.773 1.773 0 0 1-1.77-1.773V23.349a1.771 1.771 0 0 1 1.77-1.771h105.474a1.771 1.771 0 0 1 1.773 1.771v81.685a1.774 1.774 0 0 1-1.773 1.766zm-103.7-3.542h101.927V25.12H16.985v78.142zm50.964-.652a38.293 38.293 0 1 1 14.958-3.017 38.145 38.145 0 0 1-14.959 3.021zm0-73.3a34.765 34.765 0 1 0 13.578 2.739 34.672 34.672 0 0 0-13.579-2.736zm0 49.3a14.42 14.42 0 1 1 14.417-14.415A14.434 14.434 0 0 1 67.95 78.609zm0-25.295a10.878 10.878 0 1 0 10.875 10.88A10.886 10.886 0 0 0 67.95 53.314zM27.184 90.4a3.562 3.562 0 0 0-1.784-3.081v-.3a1.77 1.77 0 1 0-3.539 0v.291a3.558 3.558 0 0 0 0 6.188v4.56a1.77 1.77 0 0 0 3.539 0v-4.573a3.566 3.566 0 0 0 1.784-3.085zM67.95 66.132a1.941 1.941 0 1 1 1.94-1.942 1.944 1.944 0 0 1-1.94 1.942zm47.425-26.279a6.2 6.2 0 0 0-4.4-5.93v-4.048a1.771 1.771 0 0 0-3.542 0v4.036a6.2 6.2 0 0 0 0 11.885v35.16l-4.515 7.87a1.773 1.773 0 0 0 3.077 1.762l4.749-8.278a1.78 1.78 0 0 0 .236-.88V45.781a6.2 6.2 0 0 0 4.395-5.928zm-6.192 2.653a2.653 2.653 0 1 1 2.655-2.653 2.657 2.657 0 0 1-2.656 2.653z" class="cls-3" data-name="Path 364"/>
        </g>
    </g>
</svg>
