<svg xmlns="http://www.w3.org/2000/svg" width="328" height="328" viewBox="0 0 328 328">
    <defs>
        <style>
            .cls-1{fill:#e8e8e8}.cls-2{fill:#c4c6c8}
        </style>
    </defs>
    <g id="Playlist_Empty" data-name="Playlist Empty" transform="translate(0 -45)">
        <rect id="Rectangle_56" width="328" height="328" class="cls-1" data-name="Rectangle 56" rx="20" transform="translate(0 45)"/>
        <g id="noun_turntable_446801" transform="translate(-92.529 114.23)">
            <path id="Path_384" d="M104.526 175.77a74.745 74.745 0 1 1 29.2-5.889 74.454 74.454 0 0 1-29.2 5.889zm0-143.091a67.858 67.858 0 1 0 26.5 5.347 67.675 67.675 0 0 0-26.5-5.347zm0 96.239a28.149 28.149 0 1 1 28.145-28.147 28.175 28.175 0 0 1-28.145 28.147zm0-49.378a21.234 21.234 0 1 0 21.23 21.231 21.249 21.249 0 0 0-21.23-21.231zm0 25.022a3.789 3.789 0 1 1 3.787-3.791 3.795 3.795 0 0 1-3.787 3.791z" class="cls-2" data-name="Path 384" transform="translate(152 -6)"/>
        </g>
    </g>
</svg>
